<svg id="SvgjsSvg1000" xmlns="http://www.w3.org/2000/svg" version="1.1" xmlns:xlink="http://www.w3.org/1999/xlink" xmlns:svgjs="http://svgjs.com/svgjs" width="19" height="18" viewBox="0 0 19 18"><title>Фигура 29</title><desc>Created with Avocode.</desc><defs id="SvgjsDefs1001"></defs><path id="SvgjsPath1007" d="M522.692 2035.77V2037.09H523.756V2038.4599999999998C523.769 2038.5299999999997 523.776 2038.6 523.776 2038.6699999999998V2046.6C523.776 2047.25 523.25 2047.78 522.5999999999999 2047.78C521.9499999999999 2047.78 521.4229999999999 2047.25 521.4229999999999 2046.6V2031H506.0019999999999C506.0019999999999 2031.01 505.9999999999999 2031.03 505.9999999999999 2031.04V2047.09C505.9999999999999 2048.14 506.85199999999986 2049 507.9039999999999 2049H523.0949999999999C524.1469999999999 2049 524.9989999999999 2048.14 524.9989999999999 2047.09V2035.77ZM515.374 2033.33H518.9440000000001V2034.54H515.374ZM508.274 2033.35H512.994V2038.08H508.274ZM518.964 2045.32H508.2540000000001V2044.11H518.964ZM518.964 2041.72H508.2540000000001V2040.51H518.964ZM518.964 2038.1H515.394V2036.8899999999999H518.964Z " fill="#29a693" fill-opacity="1" transform="matrix(1,0,0,1,-506,-2031)"></path></svg>