<svg xmlns="http://www.w3.org/2000/svg" width="15" height="15" viewBox="0 0 15 15"><path fill="#fff" d="M1.78 0C.8 0 0 .8 0 1.78v11.44c0 .98.8 1.77 1.78 1.77h11.43c.99 0 1.79-.8 1.79-1.77V1.78C15 .8 14.2 0 13.21 0zm9 2.34c0-.26.21-.46.47-.46h1.4c.26 0 .47.2.47.46v1.41c0 .26-.21.47-.47.47h-1.4a.47.47 0 0 1-.47-.47zm-3.26 2.3a2.88 2.88 0 1 1 0 5.76 2.88 2.88 0 0 1 0-5.76c1.59 0 0 0 0 0zm6.07 8.48c0 .26-.21.47-.47.47H1.88a.47.47 0 0 1-.47-.47V6.09h1.87c-.24.35-.32 1-.32 1.42a4.56 4.56 0 0 0 9.12 0c0-.41-.06-1.06-.36-1.42h1.87z"/></svg>