<svg xmlns="http://www.w3.org/2000/svg" width="9" height="15" viewBox="0 0 9 15"><path fill="#fff" d="M4.5 2.26c.92 0 1.66.72 1.66 1.6 0 .89-.74 1.6-1.66 1.6-.92 0-1.66-.71-1.66-1.6 0-.88.74-1.6 1.66-1.6zm0 5.47a3.94 3.94 0 0 0 4.01-3.87C8.51 1.73 6.71 0 4.5 0A3.94 3.94 0 0 0 .49 3.86C.49 6 2.29 7.73 4.5 7.73zm1.62 3.15l2.24 2.16h.01a1.1 1.1 0 0 1-.01 1.6 1.2 1.2 0 0 1-1.66 0l-2.2-2.12-2.2 2.12a1.2 1.2 0 0 1-1.66 0 1.1 1.1 0 0 1 0-1.6l2.24-2.16a7.66 7.66 0 0 1-2.33-.93 1.11 1.11 0 0 1-.37-1.56 1.2 1.2 0 0 1 1.62-.36c1.64 1 3.76 1 5.4 0a1.2 1.2 0 0 1 1.62.36c.34.53.18 1.23-.37 1.56-.72.43-1.5.75-2.33.93z"/></svg>