<svg xmlns="http://www.w3.org/2000/svg" width="15" height="14" viewBox="0 0 15 14"><path fill="#fff" d="M14.59.25c-.6.37-1.26.64-1.96.8A2.98 2.98 0 0 0 10.38 0C8.69 0 7.31 1.48 7.31 3.29c0 .25.03.5.08.74A8.54 8.54 0 0 1 1.05.6a3.4 3.4 0 0 0-.42 1.66c0 1.13.54 2.14 1.37 2.73-.5-.02-.98-.17-1.4-.41v.04c0 1.59 1.06 2.92 2.47 3.22a2.79 2.79 0 0 1-1.39.05 3.12 3.12 0 0 0 2.88 2.28A5.95 5.95 0 0 1 0 11.53a8.33 8.33 0 0 0 4.72 1.48c5.66 0 8.75-5 8.75-9.34l-.01-.43A6.33 6.33 0 0 0 15 1.54a5.9 5.9 0 0 1-1.77.52A3.25 3.25 0 0 0 14.59.25"/></svg>