<svg xmlns="http://www.w3.org/2000/svg" width="10" height="13" viewBox="0 0 10 13"><path fill="#fff" d="M.22 12.7h5.3c.22 0 .68-.06 1.37-.17.52-.08.91-.22 1.17-.4.41-.3.74-.7.98-1.22.24-.51.36-1.1.36-1.73 0-.8-.17-1.45-.51-1.97a2.7 2.7 0 0 0-1.57-1.1c.47-.2.82-.48 1.07-.83.36-.52.55-1.15.55-1.88 0-.88-.26-1.6-.77-2.2C7.66.61 6.92.31 5.96.31H.22zm3.1-9.88h1.35c.47 0 .79.1.98.3.19.21.28.5.28.85 0 .4-.09.69-.28.9-.19.2-.52.3-1 .3H3.32zm0 4.7h1.55c.54 0 .92.12 1.13.34.22.23.32.52.32.89 0 .39-.1.7-.32.94-.22.23-.59.35-1.12.35H3.32z"/></svg>