<svg xmlns="http://www.w3.org/2000/svg" width="16" height="16" viewBox="0 0 16 16"><path fill="#fff" d="M5.38 4.92c0 .48.04.84.1 1.08.06.24.17.45.32.62.15.17.41.25.68.33.27.09.82.13 1.21.13.34 0 .5-.05.77-.15.27-.1.49-.2.66-.41.17-.2.28-.43.34-.67.05-.24.07-.61.07-1.12V3.28c0-.4-.03-.7-.08-.9a1.58 1.58 0 0 0-.97-1.02 1.93 1.93 0 0 0-.87-.17 3.4 3.4 0 0 0-1.43.26c-.3.18-.51.42-.62.72-.12.3-.18.71-.18 1.24zm1.79-2.54c.03-.08.18-.11.28-.11.1 0 .25.03.28.1.03.09.05.27.05.56V5.3c0 .24-.02.4-.05.48-.04.07-.25.1-.36.1-.1 0-.17-.03-.2-.11a1.43 1.43 0 0 1-.06-.53l.01-2.32c0-.3.01-.47.05-.55zM4.15 7.02v-2.5L5.45.03 3.77 0c-.24 1.3-.41 2.25-.51 2.99-.04-.47-.19-1.64-.45-2.99H1.13l1.29 4.51v2.51zm6.19-.4c.09.16.22.23.39.32.17.1.47.06.73.06.23 0 .44.03.61-.07.18-.1.33-.19.46-.38l-.04.42h1.79v-5.8H12.5v4c0 .46-.01.74-.04.82-.02.08-.17.13-.3.13-.12 0-.22-.04-.25-.13a3.81 3.81 0 0 1-.04-.78V1.18h-1.71v4c0 .48.01.8.03.97.02.16.07.32.15.47zm4.34 1.5H1.32C.59 8.12 0 8.74 0 9.5v5.12C0 15.38.59 16 1.32 16h13.36c.73 0 1.32-.62 1.32-1.38V9.5c0-.76-.59-1.38-1.32-1.38zM3.92 10.77h-.53v4.1H2.14v-4.1h-.61V9.62h2.39zm3.59 4.1H6.2l.02-.34a.77.77 0 0 1-.33.32.92.92 0 0 1-.45.1c-.19 0-.4-.03-.53-.1a.64.64 0 0 1-.28-.26.89.89 0 0 1-.11-.35 5.42 5.42 0 0 1-.03-.72v-2.74h1.23v2.76c0 .33.01.52.03.58.02.06.19.1.28.1.09 0 .22-.04.24-.1.02-.06.03-.27.03-.6v-2.75h1.21zm3.54-1.16c0 .31.01.54-.03.69a.72.72 0 0 1-.29.39.8.8 0 0 1-.5.16.93.93 0 0 1-.42-.1c-.13-.06-.4-.16-.51-.29l-.08.32H8.05V9.62H9.3v1.52c.11-.12.37-.21.5-.27a1.16 1.16 0 0 1 .89 0c.13.04.18.12.25.22.06.1.08.2.09.29.02.1.02 0 .02.31zm1.78-1.14v1.2c0 .19.01.3.04.36s.13.08.21.08c.1 0 .24-.03.27-.1.03-.08.05-.22.05-.42v-.55h1.19v.3c0 .26-.01.46-.05.6a1.17 1.17 0 0 1-.74.8 1.8 1.8 0 0 1-.7.11c-.27 0-.43-.04-.64-.11a1.35 1.35 0 0 1-.53-.32 1.21 1.21 0 0 1-.26-.45c-.05-.16-.07-.4-.07-.7V12c0-.36.05-.36.15-.57.1-.21.33-.37.55-.48.23-.12.42-.17.71-.17.36 0 .71.07.95.2.23.14.4.32.49.54.1.22.14.39.14.8v.25zm-3.03-.95c-.03-.07-.23-.1-.31-.1-.08 0-.13.03-.15.08-.03.06-.04-.09-.04.15v1.94c0 .22.01.37.04.43s.08.1.16.1.28-.04.3-.1c.03-.07.04-.22.04-.47v-1.9c0-.22-.01-.07-.04-.13zm3.27-.18c-.08 0-.19.03-.21.08-.02.06-.03-.02-.03.22v.23h.47v-.23c0-.22-.01-.14-.03-.2-.03-.06-.12-.1-.2-.1z"/></svg>